<?xml version="1.0" encoding="utf-8"?>
<!-- Generator: Adobe Illustrator 24.1.0, SVG Export Plug-In . SVG Version: 6.00 Build 0)  -->
<svg version="1.1" id="Layer_1" xmlns="http://www.w3.org/2000/svg" xmlns:xlink="http://www.w3.org/1999/xlink" x="0px" y="0px"
	 viewBox="0 0 1366 768" style="enable-background:new 0 0 1366 768;" xml:space="preserve">
<style type="text/css">
	.st0{fill:#FFFFFF;}
</style>
<path class="st0" d="M118.04,423.85h-15.38v61.53H54V303.59h70.48c45.59,0,66.56,25.17,66.56,57.33c0,22.38-9.51,40.55-29.65,50.06
	l39.43,74.39h-52.3L118.04,423.85z M102.66,345.55v37.48h21.81c10.63,0,17.62-6.99,17.62-18.74c0-11.75-6.99-18.74-17.62-18.74
	H102.66z"/>
<path class="st0" d="M819.49,412.06c0-47.43,27.41-76.68,72.44-76.68c45.03,0,72.44,29.26,72.44,76.68s-27.41,76.68-72.44,76.68
	C846.9,488.74,819.49,459.49,819.49,412.06z M921.58,423.71v-23.29c0-21.59-11.19-33.79-29.65-33.79
	c-18.46,0-29.65,12.21-29.65,33.79v23.29c0,21.58,11.19,33.8,29.65,33.8C910.39,457.5,921.58,445.29,921.58,423.71z"/>
<path class="st0" d="M379.65,278.42h35.24l-16.22,94.44h1.4c10.91-22.1,24.33-37.48,49.23-37.48c29.93,0,43.07,21.26,43.07,55.94
	c0,51.74-23.77,97.42-67.12,97.42c-22.1,0-34.12-10.63-38.88-29.65h-1.68l-4.2,26.29h-35.24L379.65,278.42z M452.37,423.57
	l3.07-20.79c0.56-3.36,1.12-7.83,1.12-12.31c0-15.94-6.43-27.13-22.37-27.13c-10.63,0-19.3,5.03-27.13,14.27
	c-5.32,6.15-11.74,18.83-13.98,31.42l-4.2,26.29c-2.8,15.94,6.43,25.45,25.17,25.45C436.7,460.77,448.73,446.23,452.37,423.57z"/>
<path class="st0" d="M509.79,412.05c0-41.52,29.09-76.67,77.27-76.67c48.49,0,77.58,35.15,77.58,76.67s-29.09,76.97-77.58,76.97
	C538.88,489.02,509.79,453.56,509.79,412.05z M624.64,412.05c0-22.73-13.34-42.42-37.58-42.42c-23.94,0-37.27,19.7-37.27,42.42
	c0,23.03,13.34,42.73,37.27,42.73C611.31,454.78,624.64,435.08,624.64,412.05z"/>
<path class="st0" d="M841.07,287.09l-5.16,49.31h-11.36c-7.23-24.53-14.46-33.82-37.95-33.82h-45.7l-10.07,80.03h38.98
	c12.91,0,19.11-8,24.27-25.3h11.87l-8,65.83h-11.88c-1.03-17.3-5.16-25.04-18.07-25.04h-38.98l-5.94,45.2
	c-0.77,6.45-1.03,9.29-1.03,12.39c0,11.36,6.71,15.75,32.01,17.04l-1.55,12.65h-96.55l1.55-12.65c19.1-0.77,28.66-3.61,30.72-20.4
	l16.01-132.18c0.51-3.1,0.77-3.12,0.77-4.67c0-12.65-8.78-14.97-26.08-15.75l1.55-12.65H841.07z"/>
<path class="st0" d="M269.85,489.58c-19.58,0-35.8-6.84-48.67-20.51c-12.87-13.67-19.3-32.53-19.3-56.58
	c0-23.86,6.62-42.68,19.86-56.45c13.23-13.77,29.27-20.65,48.11-20.65c18.64,0,34.45,6.88,47.42,20.65
	c12.96,13.77,19.44,32.59,19.44,56.45c0,24.05-6.3,42.91-18.89,56.58C305.24,482.74,289.25,489.58,269.85,489.58z M269.85,469.2
	c12.49,0,22.84-5,31.05-15.01c8.2-10.01,12.31-23.91,12.31-41.72c0-17.99-4.05-31.94-12.16-41.85
	c-8.11-9.91-18.51-14.87-31.19-14.87c-13.05,0-23.73,4.91-32.03,14.73c-8.29,9.82-12.44,23.82-12.44,41.99s4.15,32.17,12.44,41.99
	C246.13,464.3,256.8,469.2,269.85,469.2z"/>
<path class="st0" d="M1073.02,335.38c37.79,0,53.73,27.05,53.73,60.71v70.33c0,15.33-7.68,20.14-18.3,20.14h-4.43
	c-11.21,0-18.89-4.51-18.89-20.14v-64.02c0-19.54-9.74-31.56-26.57-31.56c-14.76,0-25.97,7.82-31.88,19.24v76.35
	c0,15.33-7.68,20.14-18.31,20.14h-4.42c-11.22,0-18.89-4.51-18.89-20.14V341.99c0-1.2,7.38-4.81,15.65-4.81
	c10.62,0,22.44,5.11,25.39,24.05C1036.12,346.2,1050.88,335.38,1073.02,335.38z"/>
<path class="st0" d="M1254.22,335.38v25.73l-46.47-2.24l2.24,22.93v54.36c0,13.24,6.34,19.86,19.02,19.86h20.23v29.36h-28.06
	c-31.5,0-47.26-14.73-47.26-44.19v-59.39l2.24-22.65l-31.65,1.96v-25.73l31.09,1.96l-1.68-12.58v-37.67h36.08v37.67l-1.96,12.87
	L1254.22,335.38z"/>
<g>
	<path class="st0" d="M1276.67,292.07v20.75h-5.6v-20.75h-6.97v-4.98h19.54v4.98H1276.67z"/>
	<path class="st0" d="M1306.73,295.93h-0.11l-1.88,3.76l-5.01,9.1l-4.9-9.07l-1.95-4.06h-0.11v17.14h-5.27v-25.73h5.93l6.3,12.05
		h0.08l6.23-12.05h5.97v25.73h-5.27V295.93z"/>
</g>
</svg>
