<?xml version="1.0" encoding="utf-8"?>
<!-- Generator: Adobe Illustrator 24.1.0, SVG Export Plug-In . SVG Version: 6.00 Build 0)  -->
<svg version="1.1" id="Layer_1" xmlns="http://www.w3.org/2000/svg" xmlns:xlink="http://www.w3.org/1999/xlink" x="0px" y="0px"
	 viewBox="0 0 248 42" style="enable-background:new 0 0 248 42;" xml:space="preserve">
<path d="M12.73,28.93H9.68v12.24H0.01V5.01h14.01c9.06,0,13.23,5.01,13.23,11.4c0,4.45-1.89,8.07-5.89,9.96l7.84,14.8H18.79
	L12.73,28.93z M9.68,13.35v7.45h4.33c2.11,0,3.5-1.39,3.5-3.73s-1.39-3.73-3.5-3.73L9.68,13.35L9.68,13.35z"/>
<path d="M152.13,26.75c0-9.43,5.45-15.25,14.4-15.25c8.95,0,14.4,5.82,14.4,15.25S175.47,42,166.52,42S152.13,36.18,152.13,26.75z
	 M172.42,29.07v-4.63c0-4.29-2.22-6.72-5.89-6.72c-3.67,0-5.89,2.43-5.89,6.72v4.63c0,4.29,2.22,6.72,5.89,6.72
	C170.19,35.79,172.42,33.36,172.42,29.07z"/>
<path d="M64.72,0h7L68.5,18.78h0.28c2.17-4.4,4.84-7.45,9.78-7.45c5.95,0,8.56,4.23,8.56,11.13c0,10.29-4.72,19.38-13.34,19.38
	c-4.39,0-6.78-2.11-7.73-5.9h-0.33l-0.83,5.23h-7L64.72,0z M79.17,28.87l0.61-4.14c0.11-0.67,0.22-1.56,0.22-2.45
	c0-3.17-1.28-5.4-4.45-5.4c-2.11,0-3.84,1-5.39,2.84c-1.06,1.22-2.33,3.75-2.78,6.25l-0.83,5.23c-0.56,3.17,1.28,5.06,5,5.06
	C76.06,36.27,78.45,33.38,79.17,28.87z"/>
<path d="M90.58,26.69c0-8.26,5.78-15.25,15.36-15.25c9.64,0,15.42,6.99,15.42,15.25S115.57,42,105.94,42
	C96.36,42,90.58,34.95,90.58,26.69z M113.41,26.69c0-4.52-2.65-8.44-7.47-8.44c-4.76,0-7.41,3.92-7.41,8.44
	c0,4.58,2.65,8.5,7.41,8.5C110.76,35.19,113.41,31.27,113.41,26.69z"/>
<path d="M156.42,1.72l-1.03,9.81h-2.26c-1.44-4.88-2.87-6.73-7.54-6.73h-9.08l-2,15.92h7.75c2.57,0,3.8-1.59,4.82-5.03h2.36
	l-1.59,13.09h-2.36c-0.2-3.44-1.03-4.98-3.59-4.98h-7.75l-1.18,8.99c-0.15,1.28-0.2,1.85-0.2,2.46c0,2.26,1.33,3.13,6.36,3.39
	l-0.31,2.52h-19.19l0.31-2.52c3.8-0.15,5.7-0.72,6.1-4.06l3.18-26.29c0.1-0.62,0.15-0.62,0.15-0.93c0-2.52-1.74-2.98-5.18-3.13
	l0.31-2.52L156.42,1.72L156.42,1.72z"/>
<path d="M42.9,42c-3.89,0-7.11-1.36-9.67-4.08s-3.84-6.47-3.84-11.25c0-4.75,1.32-8.49,3.95-11.23c2.63-2.74,5.82-4.11,9.56-4.11
	c3.7,0,6.85,1.37,9.42,4.11c2.58,2.74,3.86,6.48,3.86,11.23c0,4.78-1.25,8.53-3.75,11.25C49.93,40.64,46.76,42,42.9,42z M42.9,37.95
	c2.48,0,4.54-0.99,6.17-2.99c1.63-1.99,2.45-4.76,2.45-8.3c0-3.58-0.8-6.35-2.42-8.32c-1.61-1.97-3.68-2.96-6.2-2.96
	c-2.59,0-4.72,0.98-6.37,2.93c-1.65,1.95-2.47,4.74-2.47,8.35s0.82,6.4,2.47,8.35C38.19,36.97,40.31,37.95,42.9,37.95z"/>
<path d="M202.51,11.33c7.51,0,10.68,5.38,10.68,12.08v13.99c0,3.05-1.53,4.01-3.64,4.01h-0.88c-2.23,0-3.75-0.9-3.75-4.01V24.66
	c0-3.89-1.94-6.28-5.28-6.28c-2.93,0-5.16,1.56-6.34,3.83V37.4c0,3.05-1.53,4.01-3.64,4.01h-0.88c-2.23,0-3.75-0.9-3.75-4.01V12.64
	c0-0.24,1.47-0.96,3.11-0.96c2.11,0,4.46,1.02,5.05,4.78C195.18,13.48,198.11,11.33,202.51,11.33z"/>
<path d="M236.52,11.33v5.12L227.29,16l0.45,4.56v10.81c0,2.63,1.26,3.95,3.78,3.95h4.02v5.84h-5.58c-6.26,0-9.39-2.93-9.39-8.79
	V20.56l0.45-4.51l-6.29,0.39v-5.12l6.18,0.39l-0.33-2.5V1.72h7.17v7.49l-0.39,2.56L236.52,11.33z"/>
<g>
	<path d="M240.98,2.72v4.13h-1.11V2.72h-1.39V1.72h3.88v0.99H240.98z"/>
	<path d="M246.96,3.48h-0.02l-0.37,0.75l-1,1.81l-0.97-1.8l-0.39-0.81h-0.02v3.41h-1.05V1.72h1.18l1.25,2.4h0.02l1.24-2.4h1.19v5.12
		h-1.05L246.96,3.48L246.96,3.48z"/>
</g>
</svg>
